<svg width="601" height="157" fill="none" xmlns="http://www.w3.org/2000/svg"><g clip-path="url(#clip0_667_31854)" fill="#fff"><path d="M47.257 64.496l.955-.577c.162.036.37-.153.432-.207.054-.045.198-.054.334-.045a.47.47 0 01.117-.253l.396-.387c.126-.108.198-.198.162-.198l-.045-.018c-1.288-.478-1.198-2.153-1.198-2.153 0-.163-.234-.73-.333-.847-.1-.126.26-.243.396-.198.144.045.297-.154.324-.253.027-.099-.09-.189-.252-.198l-1.054-.099-2.288 5.225c.36.126 1.117.523 1.18.604.081.099.703-.441.865-.396h.009zm1.18-6.883c.19.108 1 .045 1.081-.199v-.648a.36.36 0 00-.423-.406l-.253.054-.495 1.127s.054.045.09.063v.009zM34.176 142.27h3.243a.784.784 0 00.009-.288l-.198-.883a.644.644 0 01.252-.531l.847-.721c.126-.144.324-.379.441-.523l.604-.558c-9.397-1.307-15.297-5.09-15.297-11.099 0-1.721-.262-3.505 1.414-7.955l8.577-19.532a2.478 2.478 0 012.27-1.477h38.054l2.513-2.063c.244-.027.352.441.307.621-.045.18 0 .45.027.505.018.036.36-.081.603-.126l-.08-2.37c.026-.099-.073-.261-.172-.405H40.22a2.472 2.472 0 01-2.071-1.126 2.483 2.483 0 01-.199-2.352l10.83-24.702a.606.606 0 01-.334-.207l-.423-.532c-.019-.162-.163-.252-.316-.19l-2.054-.765a.743.743 0 00-.405-.37l-.153-.071-21.712 49.666c-3.432 7.982-8.45 16.937-12.46 20.667-3 2.784-5.982 3.162-10.432 4.387a5.99 5.99 0 01.883 2.063c.081.343.117.676.144 1 5.991.018 12.55.018 18 .018 3.153 0 8.207-.054 14.649-.054l.009-.027zm46.216-43.576h2.748c-.072-.153-.081-.388-.027-.433.072-.063 0-.117-.171-.126L81.734 97.1s-.054-.054-.063-.081l-1.207.306-.063 1.37h-.01zM44.68 142.252c-.252-.468-.468-1-.612-1.585a6.136 6.136 0 01-.163-1.478 57.57 57.57 0 01-2.252-.162l-1.162 1.342a.472.472 0 00-.171.514l.396 1.405c1.45 0 2.748.018 3.946.045v-.063l.018-.018zm6.766-82.982c-.01.09-.144.108-.297.036l-.424-.144c-.162 0-.207.1-.09.216l.694 1.487.946-2.153-.55.189c-.162.045-.279.28-.288.37h.009zM75.86 16.018h.018v-.036h-.018v.036zm-.054.045s-.009 0-.018.01c-.009.008 0 0 .018 0s0-.01 0-.01zm67.523 124.784c-.153-.667 0-1.063.054-1.658a53.769 53.769 0 01-4.18-.567c-.081.045-.162.081-.189.072-.055-.018-.523.36-.649.495s-.775.307-.919.298c-.135-.009-.324.18-.414.432l-.901 2.531c3.027 0 6.036.018 8.225.046-.559-.478-.883-1.037-1.027-1.649z"/><path d="M135.761 138.739c.018-.261.171-.496.216-.505.028 0 .244-.126.478-.261-.099-.027-.207-.063-.306-.09-.19.072-.334.072-.334.045 0-.018.036-.063.09-.126-1.144-.388-2.216-.865-3.144-1.496-4.441-2.982-8.063-10.189-10.468-15.189l-22.37-51.27c-.099.189-.216.324-.297.351-.144.054-.37.225-.405.28-.036.053-.126-.01-.126-.046s-.352.028-.766.145l-1.514-1.055c-.306-.306-.252-.747.1-.981l1.558-1.054a.776.776 0 01.405-.018l-5.153-11.802c-.126.054-.207.08-.207.08-.396.163-.946.028-1.216-.297l-.802-4.207c-.252-.351-.198-.576-.108-.522.081.045.144.072.126.063v-.018s.036-.045.045-.063L80.951 26.378c-.118.01-.217.01-.253-.009-.08-.036-.09-.26-.009-.504l.018-.054-.513-1.162c-.406-.208-1.081-.685-.856-1.406a2.68 2.68 0 00.08-.378L78.05 19.73l-2.45-.595a.749.749 0 01-.442-.613l.288-1.99c.153-.199.216-.406.207-.424 0-.018-.054-.063-.072-.072-.018-.009.018-.144.045-.171.036-.027.054-.054.054-.054s.306-.027.388-.108c.08-.072.126-.036.144 0 0 .027.036.027.08.009l-1.585-3.64a22.499 22.499 0 01-3.694.01c-.918 2.27-2.82 4.729-5.765 7.468-3.126 2.9-6.144 5.09-9.027 6.531a18.59 18.59 0 011.09 6.27c0 2.604-.649 5.478-2.01 8.874l-4.26 9.739.036.108a.854.854 0 01.072.559l-.325 1.928c-.072.144-.018.342.117.441l2.027 1.37c.136.09.379.135.541.09l.225-.064 4.46-10.162c.396-.9 2.46-5.892 4.46-6.46 4.36-1.242 5.648 2.676 7.233 6.46l20.253 46.18a2.483 2.483 0 01-.198 2.352 2.473 2.473 0 01-2.073 1.126h-9.225s-.045.072-.072.072c-.081 0-.18.144-.207.207-.036.063-.18-.027-.243-.054s-.018.045.108.162l1.225 1.505c.144.09.378.09.514 0l1.684-.054c.072.036.108.09.117.153l.469-.1a.544.544 0 01.495.172l.658.946c.063.153.19.297.225.306h.072s.289.09.406.135a.732.732 0 01.234.136c.009.018.072.044.09.053.018 0 .045-.018.045-.035 0-.01.288.035.378.026.09-.009.1-.144.027-.297l-.216-.495c-.08-.144.027-.388.081-.46.036-.045.027-.207.018-.324l-.216.468a1.535 1.535 0 01-.558-.198l-.118-.46c-.099-.134-.08-.152.036-.026l.775-.379c.162.027.261.18.198.343l-.063.135s.045.027.081.063c0 0 .91.919 1.27 1.63l.127.226h5.27a2.47 2.47 0 012.261 1.468l4.703 10.568c5.793 12.946 5.766 15.252 12.396 19.748.1.063.181.153.271.225v-.027c.081-.252.351-.343.576-.216l1.027.738a2.217 2.217 0 01-.468.811l-.388.027c.018.099.045.189.054.297a2.487 2.487 0 01-.774 2c-3.667 3.433-11.793 3.694-18.27 4.847.531.613 1.18 1.117 1.414 2.126.081.334.117.667.144.991 2.45-.162 4.91-.198 7.423-.171-.045-.054-.081-.099-.09-.162l.063-.063c.487-.541 1.19-.018 1.19-.018.117.09.153.18.117.261 3.54.054 7.198.18 11.072.18 3.396 0 8.351.09 15.099.109.009-.109.027-.208.036-.289l-.153-.874a.46.46 0 00-.586-.315l-1.549.838a3.512 3.512 0 01-.46.423c-.036.018-.234-.126-.315-.18-.072-.054-.189.126-.198.216-.018.081-.054-.162-.081-.261-.018-.099.108-.27.171-.297.054-.027.144 0 .153.018.009.018.207-.036.243-.108.036-.072.054-.144.054-.144s.189-.118.424-.244l.982-.513c.234-.117.414-.216.405-.216 0 0 .351-.253.468-.343.127-.081.1 0 .064.081-.036.081.135.361.243.397.108.036.459-.325.432-.514-.027-.18-.162-.306-.315-.261-.036.027-.072.045-.108.072l.108-.072c1.09-.757 2.018-1.333 2.018-1.333a.545.545 0 01.703.135l3.612 1.82c.262.054.415-.118.334-.37l-.316-1.36.018-.054zM80.941 27.523l-1.252 1.495c-.207.135-.711.144-.829.108-.126-.036-.063-.37 0-.486.063-.117.136-.406.171-.658l.118-.91a.514.514 0 01.513-.432l1.153.234a.515.515 0 01.136.658l-.01-.01zm80.946 28.009c-.108.117-.324.135-.513.036l-1.126-.937c-.09-.127-.126-.316-.117-.496-.244-.18-.487-.36-.739-.531l-16.225 12.63c.081.18.153.379.198.586.09.378.099.739.054 1.054 1.018-.649 4.64-3.153 5.568-3.306.918-.154 1.864-.037 2.747.243 1.82.567 3.406 1.766 4.748 3.09.225.225.45.46.667.694 1.991 2.17 3 4.918 3 8.207-.027 3.225-1.685 7.441-5 12.72.036.18.045.37 0 .451-.072.108-.235.162-.388.153a81.764 81.764 0 01-2.099 3.126l.451.559c.099.162.018.297-.172.288 0 0-.225 0-.378-.126.523.441 1.342 1.288 1.342 1.288.136.135.244.235.244.226 0 0 .027.035.036.054 0 .018.117.144.234.297l.081.099c2.153-2.514 4.027-4.802 5.595-6.829 5.639-7.288 8.504-13.513 8.504-18.495 0-6.172-2.216-11.136-6.739-15.081h.027zm-4.558 34.675h-.018s-.036.054-.036.063c0 .01-.054.036-.072.036a.253.253 0 00-.108.072c-.018.027-.208.064-.271.073-.063 0-.126-.028-.126-.037 0-.009-.063 0-.09 0h-.036s-.054-.018-.072-.027c-.018-.009-.054-.027-.054-.036v-.027c0-.009.09-.036.117-.036.027 0 .009-.09 0-.126-.009-.036-.027-.054-.036-.054 0 0-.036.081-.054.108-.018.027-.072-.045-.054-.063.018-.027.027-.108.036-.126.009-.018-.009-.036-.054-.036s.18-.117.279.027c.099.144.297.072.361.018.063-.054.117-.09.117-.09s.036-.045.054-.063c.009-.018.117-.054.234-.072v.108c.018.108 0 .243-.126.297l.009-.009zm3.901-2.973c-.694.595-1.379-.207-1.379-.207-.126-.144-.09-.333.081-.414l1.055-.208a.617.617 0 01.432.397s.063.225-.189.432zM118.293 70.73c.099.324.558.063.675-.18a.44.44 0 00-.243-.604c-.243-.09-.531.45-.432.775v.009z"/><path d="M131.923 120.432c7.721-7.964 14.181-14.891 19.352-20.747a.882.882 0 01-.063-.09 4.15 4.15 0 00-.397-.433l-.648-.594c-.135-.136-.298-.1-.361.08l-.964.505c-.189 0-.36-.045-.36-.054 0-.009-.063 0-.09 0h-.117c-2.153 2.712-4.595 5.604-7.343 8.703-.414.459-1 .721-1.603.721-.126 0-.252-.009-.388-.037a2.144 2.144 0 01-1.621-1.342l-10.604-27.757c-.874-.279-.991-.73-.531-1.387l-1.766-4.622a13.814 13.814 0 00-1.676-3.099l-2.441.325c-.234-.027-.631.135-.712.117-.081-.018-.153-.036-.153-.036s-.126.414-.234.495c-.108.081.054.261.153.306.099.045.45-.126.513-.243.063-.117.406-.045.514.081.108.127-.369.262-.487.388-.126.126-.207.405-.261.468-.054.063-.162.108-.18.09-.018-.018-.198.153-.27.208-.072.053-.208-.253-.126-.352.027-.036.045-.054.063-.08-.018 0-.045 0-.063-.01-.009-.009-.199-.162-.217-.243-.018-.081-.018-.153-.018-.153s-.144-.054-.198-.09a.444.444 0 00-.243 0c-.036.018-.18-.072-.189-.108 0-.046-.027-.028-.027 0 0 .018-.505-.325-.622-.523-.117-.198.108-.432.198-.397.09.037.189-.18.198-.27 0-.09.073-.18.091-.18.018 0 .018-.19 0-.423l.108-3.856a24.565 24.565 0 00-1.514-1.01 2.152 2.152 0 01-1.009-1.747 2.136 2.136 0 01.883-1.81c2.306-1.685 5.487-2.622 9.667-2.857a2.965 2.965 0 01-.226-1.135c0-.387.073-.477.19-.784-1.946.036-4.424.054-7.415.145-5.171.17-17.36 0-20.396-.82.054.225.09.198.09.46 0 .684-.216 1.288-.532 1.639 5.163 2.324 9.262 7.036 12.199 14.054l19.414 45.802 2.441 2.693-.009.009zm90.118-50.954l.657 1.054c.063.234 0 .468-.036.495-.018.01-.135.144-.279.306l2.405-1.91-2.576-.35c-.234.035-.316.215-.171.414v-.01z"/><path d="M231.446 100.153l-.883-.91c-.234-.09-.306-.333-.171-.54l2.504.612s.073.045.1.072l7-5.54a2.71 2.71 0 01-.586-1.198 2.928 2.928 0 01-.063-.955l-20.252 15.684c.234.217.387.505.279.631-.162.207-.64.514-1.072.694l-.505-.325-5.225 4.045c-.739.622-1.315.55-1.73.55-.234 0-.468-.036-.684-.117-4.604-1.568-15.604-9.541-17.721-11.009-.64-.442-1.505-1-2.117-1.676-.469-.513-.784-1.108-.766-1.775.027-.675.36-1.297.919-1.684l29-23.045.189-1.117c.054-.235.117-.676.09-.74-.027-.062.171-.288.226-.288.054 0 .342-.45.405-.603.063-.153.567-.487.685-.514.117-.027.225-.243.225-.486l.054-4.397c0-.234-.18-.35-.397-.252l-1.108.45c-.225.082-.153-.216-.054-.342.09-.126.235-.55.28-.684.018-.063.045-.117.054-.163-8.559-5.738-13.28-10.288-13.28-10.288-12.639 5.433-22.207 10.928-28.441 16.343-6.225 5.396-9.252 11.45-9.252 18.513 0 7.063 2.919 12.892 8.801 18.415a.552.552 0 01.217-.091c.315-.027.459.064.414.073-.054 0 .18-.009.288-.037.109-.027.253.631.28.928 0 .072 0 .136-.027.19 5.792 5.144 13.729 10.171 23.756 14.657l28.667-22.675a.861.861 0 00-.081-.406h-.018zm-50.261 5.856l-.766-.703c-.243-.387.766-1.306 1.135-1.198.36.108.712.514.775.901.063.387-.703 1.135-1.135.991l-.009.009zm1.36-13.297c-1.748-2.73-2.288-6.144-2.297-9.334-.045-8.756 6.567-15.684 13.279-20.675.378-.289.829-.406 1.279-.424.874-.036 1.487.144 1.901.568 4.442 4.54 8.721 7.666 14.144 11.099 1.28.81 1.316 2.72.072 3.576 0 0-22.684 18.037-22.72 18.064-2.262 1.792-4.55-1.144-5.658-2.874zm39.577 15.198s-.018-.009-.009-.018c0 0 .045 0 .045.009h-.036v.009zm71.756-1.207c.883 4 1.406 6.847 1.406 6.847.243.828.748 3.126 1.288 5.666.613.252.919.721 1.541 1.162-.568.063-.982.045-1.316-.072.388 1.856.784 3.757 1.081 5.244.181-.027.379-.036.586-.036.207 0 .405.009.586.036.783-3.847 2.153-10.46 2.603-12.009 0 0 1.388-7.496 3.433-15.262-.19.108-.46-.153-.424-.252.036-.108-.099-.306-.162-.378-.063-.072.126-.226.198-.298.072-.063-.054-.045-.27.054l-2.595.856a.733.733 0 00-.252.685l-.784 2.243c-.09.072-.18.099-.252.081v.009l-.099.667a.79.79 0 01-.468.568l-1.577.387c-.234 0-.487.099-.514.135a.225.225 0 00-.036.072s-.009.018-.018.018c0 0-.261.342-.378.469-.117.126-.27.243-.297.243-.027 0-.09.063-.108.09-.018.027 0 .072.018.081.018 0-.199.36-.226.478-.027.117.136.198.379.18l.766-.036c.234-.036.504.225.567.333.045.081.261.144.424.18l-.505-.522c.099-.217.351-.496.541-.631l.666.072c.234-.054.243-.027.018.063l.099 1.216c-.117.208-.369.244-.549.099l-.135-.144s-.081.045-.135.063c0 0-1.667.73-2.793.856-.586.063-1.496.28-2.289.478l-.018.009zm8.433-2.505a.137.137 0 01.18-.009c.054.036.18.279.153.316-.027.045-.234.054-.225-.018.009-.073-.063-.127-.072-.109-.009.027-.108.054-.135.036-.027-.018.063-.171.108-.216h-.009zm47.829 37.397h-.027v.027l.027-.018v-.009zm-.424.243a.565.565 0 00-.072-.135c-.009 0 0-.018 0-.018s-.009-.054-.018-.081c0-.018.135-.154.207-.181a.27.27 0 00.136-.153c.018-.027.063-.054.072-.045.009 0 .045-.045.063-.072.018-.018-.09-.072-.226-.117 0 0-.162-.054-.36-.135a1.535 1.535 0 01-.486-.342 2.842 2.842 0 01-.658 1.351l.631.568.747-.595s-.045-.036-.045-.054l.009.009z"/><path d="M383.293 111.432l-15.207 11.343c-3.757 2.766-9.856-.072-13.307-2.18-1.036-.631-2.099-1.469-3.162-2.415l.072.532c-.045.234-.234.315-.432.189l-1.144-.856c-.181-.153-.604-.027-.694.081-.09.108.189.55.333.73.144.18.262.342.253.351 0 0 .027-.009.036-.018.009-.009.252.406.342.568.09.162.009.675-.117.775-.126.099-.586.072-.73.036-.144-.036-.414.207-.477.315-.063.108-.244.054-.397-.117l-.306-.397c.072-.225.09-.441.081-.45-.018 0 .027-.027.045-.036.018-.009.081-.315.045-.387-.036-.073-.252-.109-.486-.091l-.82.027c-.207.109.063.433.225.568.171.135.207.414.099.622l-2.676 1.711c-.225.072-.333-.036-.243-.261l.433-2.405c.135-.189.297-.352.324-.334a3.22 3.22 0 00-.225-.315s-.469-.613-.126-.856l.072-.054c.108-.072.234-.279.288-.45.054-.18.351-.244.351-.244.217-.099.532 0 .523.054-.009.055.423.109.603.19.181.072.235.396.19.486-.045.09.099.099.324.027l1.126-.153c.234.045.469-.721.532-.856.063-.135.063-.432 0-.657l-.027-.847c-2.703-2.901-5.217-6.262-6.946-8.91-7.775-11.847-8.352-27.162-3.451-37.523 0 0 2.451-6.189 7.766-13-.126-.387-.108-.892-.027-1.099.126-.315.036-.675-.036-.703-.072-.027.045-.405.261-.837l.487-.955a.798.798 0 011.135-.352l1.243.586c3.351-2.991 6.432-4.045 7.847-4.072 1.829 0 3.883.72 6.261 2.189l.027-.162a3.38 3.38 0 01.261-.72s-10.765-8.136-12.144-9.271c0 0-13.081 10.405-18.396 14.342-3.613 2.685-18.46 13.658-27.559 20.397.036.09.081.162.153.225l-.144.216-.054.081c-.153-.018-.495.027-.748.063-.135.1-.27.198-.396.297.054.054.153.154.252.27l.262.875c.081.234-.559.387-.757.252-.207-.135-.496.19-.568.396-.072.208-.657-.126-.802-.324a.442.442 0 00-.189-.144l-1.162.856-.162.477c-.117.072-.27.01-.387-.072a619.559 619.559 0 01-2.595 1.919s-29.532-21.847-34.838-25.784c-2.432-1.802-6.477-4.955-10.162-7.847a.723.723 0 01-.18-.045l-.514-.243a1.912 1.912 0 01-.342-.306c-.045-.063-.225.009-.27.072-.045.063-.063.036-.036-.063 0 0 .054-.261-.172-.478l-.054-.054c.018-.027.018-.063.027-.099-1.045-.82-2.027-1.603-2.909-2.297l-.838.153a.478.478 0 00-.28.198l-.252.433a.376.376 0 01-.297.126l-.613-.027c-.099.009-.27.027-.369.045h-3.351c-.091-.036-.181 0-.19.108l-.045.405c-.009.1-.054.261-.099.352l-.135.288a.981.981 0 00-.081.216c0 .01-.009.018-.018.01 0 0-.072.125-.099.18-.027.053.036.107.144.125l.514.163c.099.027.099.072 0 .108l-3.838-.604c-.081-.054-.036-.099 0-.099s-.054-.09-.045-.153c0-.036-.036-.153-.081-.261a2604.65 2604.65 0 01-5.955 4.513c.108.216.198.46.261.72l.027.163c2.378-1.468 4.432-2.19 6.261-2.19 1.64.037 5.505 1.424 9.424 5.613 6.351 7.487 9.252 14.83 9.252 14.83 4.901 10.36 4.324 25.675-3.451 37.522-2.937 4.486-8.117 11.072-12.702 13.883-3.451 2.108-9.559 4.946-13.307 2.18l-15.207-11.343s.361 2.073-.45 3.433l31.108 24.739 1.531-.712c.226-.099.55-.198.604-.234.054-.036.342-.171.423-.207.09-.037.433-.136.532-.19.099-.054.369-.162.604-.252l.45-.153c1.198-2.469 4.072-5.676 7.73-10.018a.373.373 0 01-.054-.207l.423-1.325a.81.81 0 01.721-.243s.126.045.243.189a149.795 149.795 0 005.721-7.27c7.937-10.775 6.72-27.649 4.964-37.937l-.054-.054c-.235-.252-.289-.694-.135-1.009-.865-4.73-1.775-7.838-1.784-7.874-.216-1.28.973-2.423 2.243-2.153 0 0 18.063 10.342 22.108 23.829 1.117 3.72 2.108 7.712 2.883 11.126l3.712-2.703c.171-.162.756-.009.802.108.045.127.162.054.261-.162l1.973-1.063a.337.337 0 01.135-.045l.261-2.126c.171-.162.261-.423.252-.468-.009-.045-.081-.064-.108-.054-.027 0-.018-.1 0-.127.018-.027.036-.252.036-.486l-.108-1.748a.53.53 0 01.514-.414l3.45 1.189c.171.117.613-.018.874-.072.27-.991.55-1.973.847-2.946C310.383 80.35 328.446 70 328.446 70c1.27-.27 2.459.874 2.243 2.153-.018.126-9.054 30.523 2.991 46.874a153.62 153.62 0 005.225 6.667 3.952 3.952 0 011.217.558c.189.135.36.379.36.424 0 .045-.117.063-.162.063s-.198.09-.351.225c4.846 5.784 8.486 9.649 9.036 12.441l.261-.054c.144-.027.207-.198.189-.27-.009-.072.315-.117.387-.063.072.054.09.153.081.171-.009.018.055.018.073.009.018-.009.126.081.216.198l1.324 1.127.748-.595.036-.297c-.072-.126.171-.451.288-.496.117-.045.081-.126.036-.144a4.554 4.554 0 01-.252-.117l.054-.099.018-.036c.099 0 .252-.099.333-.216l.649-.172c.126-.072.45.081.486.19 0 .009.019.036.028.054l29.774-23.685c-.811-1.36-.45-3.432-.45-3.432l.009-.046zm-136.937 25.343c-.018.135-.207.126-.406-.018l-.819-.162c-.244-.018-.37-.172-.262-.343.099-.171.262-.774.226-.829-.036-.045.108.018.315.136l.694.414c.207.135.27.667.243.802h.009zm34.811-61.72c-.063.017-.541-.298-.694-.415-.153-.118-.207-.622-.108-1.118l.504.109c.784.162.775.18.775.18-.135.648-.405 1.225-.477 1.243zm58.081 44.188c-.126.433-.469.442-.469.442-.234 0-.351-.244-.315-.325.045-.09-.054-.054-.108-.009-.045.036-.09-.18-.108-.297-.018-.117.054-.117.171 0 .117.117.396.018.396.018.235-.018.442.018.46.099l-.027.081v-.009zm-.757-1.315c.46-1.126 1.009-.604 1.586-.514-.352.892-.748 1.316-1.586.514zm-95.423-73.955l2.991-.333a.254.254 0 00.261-.145l.667-1.324c-.685-.54-1.199-.946-1.487-1.18l-1.748 1.297a.496.496 0 01-.342.018l-.081-.036c-.324.252-.676.523-1.054.811l.594.775c.009.099.1.153.19.117h.009zm3.144 97.153l1.648 1.306.172-.045.522-.477c-.387-.451-.613-.946-.676-1.478-.594.262-1.216.325-1.216.325a.525.525 0 00-.441.36l-.009.009z"/><path d="M252.455 46.505l.018.026h.009s.018.019.018.028c0 0 .018 0 .018-.01-.036-.026-.081-.063-.117-.09v.01a.168.168 0 01.036.026s.009 0 .009.01h.009zm156.613 60.621c-.163.009-.415.18-.469.252-.054.072-.324-.027-.387-.099-.063-.072-.307-.198-.532-.288l-.387-.216-3.505 2.784c-.207.171-.45.288-.702.369l.162 1.82a.775.775 0 00.63.423l.136.09 3.54-2.856c-.207-.162-.387-.81-.306-.991.09-.198.297-.207.468-.036 0 0 .271.28.099.712-.027.072-.054.117-.072.162l2.144-1.729a2.53 2.53 0 00-.162-.442c-.027-.018-.486.045-.648.054l-.009-.009zm17.657 10.802l13.235-10.532a3.083 3.083 0 01-.325-.828l-.027-.163c-2.468 1.505-4.693 2.244-6.748 2.244h-.144c-1.838 0-6.117-.73-6.117-7.523V68.387c0-3.594-.811-6.747-2.414-9.378-1.027-1.694-2.216-3.054-3.577-4.1-.027.046-.054.091-.063.127-.072.207-.658-.126-.802-.315a.582.582 0 00-.666-.18l-.451.225a.442.442 0 00-.198.603l-.18.532c-.216.126-.568-.171-.55-.297.018-.127-.252.117-.342.27-.063.117-.216.162-.378.135l-9 7.018c-.045.117-.045.19-.018.171.027-.018 0 .406-.118.568-.117.162.28.171.487.144.207-.027.378.045.369.072-.009.027.289.063.406.072.117.01.108.153-.018.324-.126.172-.829 1.118-1.027 1.316-.063.063-.126.18-.181.306 1.009-.441 1.874-.748 2.343-.748h.153c1.333 0 5.685.487 5.685 6.802v26.72c0 .658-.298 1.271-.811 1.676l-5.036 4 .234.496c-.036.243-.036.441-.027.441v.036c0 .009.126.379.198.505.072.126.171.288.18.315.009.027.108.216.136.289.027.072 0 .144-.009.144l1.648-1.334a2.132 2.132 0 011.343-.477 2.136 2.136 0 012.144 2.063c.135 3.64.991 6.622 2.594 8.973 0-.045.027-.081.081-.054l4.244.901c.054.054.081.153.054.216l-.081.234c-.027.072-.036.117-.027.108h.018c.603-.063.891.622.891.622.027.063.235.243.298.27.063.027-.054.144-.117.153-.063.009-.09.117-.081.163.009.045.072.054.135.027l.603-.235c.072-.027.135-.027.144 0v.018c.063.072.081.072.081.072.073-.027.1-.108.091-.135-.009-.027 0-.045 0-.045l.036.036c.009.009.045.126.081.153a.153.153 0 01.054.1c0 .009-.117.045-.153.063-.036.009-.036.072 0 .135l.477.189.919-.73s-.099-.063-.117-.036c-.036.054-.198.018-.243-.018a.172.172 0 01-.063-.108c0-.009.063-.027.144-.036l.603-.063v.027zm-4.477.324c-.045.018-.144.054-.207.081l-.883.298c.432.351.901.675 1.387.982l.324-.325c.055-.045.055-.162.046-.207-.009-.036.036-.072.108-.072l.198-.027c.063-.036.063-.081 0-.099l-.694-.559c-.045-.054-.216-.081-.261-.072h-.018zm2.432 1.225s0-.027-.009-.027c0 0-.018-.063-.018-.081 0-.018-.054-.036-.117-.045-.063 0-.261.117-.252.19l.081.162s.045.054.081.063l.225-.18c0-.045 0-.091.009-.091v.009zm-21.504-6.729c-.045 0-.081.072-.081.099 0 .027-.108 0-.135-.036-.028-.027-.244-.09-.487-.144l-1.802-.307a.545.545 0 01-.297-.612l1.198-1.892c-6.153-1.784-10.513-4.072-13.288-6.982-2.91-3.045-4.388-7.442-4.388-13.054V68.405c0-.225-.009-.441-.018-.657-.225.117-.423.189-.495.162-.099-.027-.234-.351-.189-.45.045-.1.18-.892.216-1.163.009-.099.162-.216.351-.306-.279-2.622-1.018-4.964-2.225-7-1.279-2.162-2.82-3.775-4.676-4.9l-15.162 12.053c.072.171.144.352.189.559.036.153.054.306.073.46 2.396-1.298 4.198-1.92 5.558-1.92h.153c1.334 0 5.694.487 5.694 6.802v23.928c0 2.829.288 5.378.847 7.649a.59.59 0 01.099-.181c.045 0 .063-.018.054-.027-.009-.009.09-.009.117 0a.353.353 0 00.126.027h.045s.27-.009.37 0c.099.018-.036.964-.298 1a.767.767 0 01-.288-.027c.901 3.199 2.369 5.811 4.432 7.775 3.64 3.469 8.667 6.243 14.964 8.261l9.478-7.639a.387.387 0 00-.126-.063h-.009zm-1.478-43.604c1.18-.622 3.027-1.64 4.739-2.477v-.73c.027-.387.018-.784 0-.81-.009-.037-.459.125-.685.134-.225 0-.801.523-.865.721-.063.19-.414.162-.477.036-.027-.054-.117-.054-.243-.027l-2.793 2.171c.108.207.189.442.252.694.027.099.036.198.045.288h.027zm42.487 73.279c-.108-.018-.18.118-.153.307l.252.297c.108-.18.207-.369.315-.55a2.615 2.615 0 01-.414-.045v-.009zm-2.487 1.982l.478-.09c.081-.171.171-.297.189-.297.009 0 .018-.063 0-.072 0-.018.036-.153.054-.198.018-.045-.072-.153-.216-.234-.135-.082-.73-.055-.793.117l-.018.468c-.018.189.117.324.306.306zm.631-4.873c-.018.189.234.828.342.982.108.144-.306.27-.459.207-.162-.063-.343.162-.379.27-.036.108.091.216.28.234l1.648.207c.19.027.334.1.334.163v.054c.018.225.072.234.072.234.189.018.369-.126.369-.189s.036-.108.054-.108c.009 0 .036.099.036.135 0 .036-.054.324 0 .45.036.099.027.18.009.234a96.848 96.848 0 002.108-3.747l.081-2.19c-.027-.189-.144-.351-.171-.36-.036 0-.216-.594-.342-.54-.126.063-1.433-.667-1.514-.775-.081-.108-.819.477-1 .414l-1.108.622c-.081-.018-.171.009-.261.054-.189.594-.378 1.18-.577 1.766.568.783.478 1.865.478 1.865v.018z"/><path d="M457.005 78.18V67.252c0-3.225-.721-6.108-2.145-8.558-.864-1.487-1.864-2.703-3.018-3.676a.92.92 0 01-.504-.153l.027-.198c-.225-.172-.45-.36-.694-.514L433.96 67.442c.261.26.486.648.621 1.108 2.64-1.559 4.694-2.289 6.379-2.289.774 0 2.585.171 3.946 1.559.135-.144.342-.27.612-.342l.306.792.073.18c.207-.108.459-.17.495-.153.036.01.054.054.045.09-.009.036-.189.874-.45 1.01h-.027c.396.9.648 2.044.648 3.522v29.225c0 5.343-.207 10.315-.621 14.883.756.189 1.504.414 1.495.469-.018.063-.964.819-1.405.765-.063 0-.135-.018-.208-.027-.585 5.874-1.513 11.072-2.792 15.541a.28.28 0 00.243.027l2.297.946a.827.827 0 00.442.432l1.693.919c.163.099-.198.351-.378.388-.18.036-.216.18-.09.315l.171.468c6.324-12.171 9.532-24.27 9.532-36.153V78.91c-.09-.216-.127-.577-.045-.676.009-.009.027-.045.045-.072l.018.018zm-6.811 52.126s-.018-.018-.009-.036c.009-.009.072.027.072.036h-.063zm-11.27 20.036a1.097 1.097 0 01-.064-.639l.442-2.171a.409.409 0 00-.117-.505l-.919-.667a71.447 71.447 0 01-4.955 8.64c.477.189.919.802 1.108 1.595.036.171.063.333.072.495a144.287 144.287 0 004.613-6.162l-.171-.586h-.009zm-.685-112.207s.135.343.405.892v-.09c.135-.144.216-.27.216-.27s.009-.018.018-.018c0 0 .073-.298.082-.406 0-.117.009-.261.018-.279.009-.018.018-.19.027-.243 0-.054.054-.09.063-.09.009 0 .027-.036.036-.1l.045-.044c.09-.082.153-.163.225-.253l-1.144.91.009-.009zm16.73-2.279a1.626 1.626 0 01-.235.324l-.54.018c-.18.072-.189.054-.027-.045l-.225-.955a.277.277 0 01.387-.153c-2.658-3.477-4.036-6.495-4.036-6.495l-3.451 2.738v.018h-.027l-5.414 4.307s.018.054.018.09v.477a.606.606 0 01-.288.505l-1.018.747c-.063.18-.108.406-.099.424.009.018.333.171.441.234.108.063.351.054.405.027.063-.027.199.153.208.225.009.072.108.262.225.415l1.757 3.333c.045.19-.19.739-.325.865s-.423.342-.495.37c-.072.026-.045.234 0 .297.054.063-.036.045-.216-.036 0 0-.118-.045-.37.099 1.451 1.792 3.406 3.711 5.955 5.27l11.297-8.982c-1.513-1.315-2.819-2.748-3.945-4.144l.018.027zm32.252 4.279s-.054-.018-.054-.027c0-.009.054-.018.072-.018.018 0 .162.027.234 0l.117-.09a31 31 0 01-1.117-1.036c-.018 0-.027.009-.045.018l-1.982-.072c-.099.018-.189.072-.189.09 0 .018-.315.117-.288.18.036.072-.361.766-.415.811-.063.045.252.441.225.532l.334.594c-.027.1.081.225.117.27.027.036.027.117.018.199a.255.255 0 01.153.08l.225.253c.063.081.117.126.117.099v-.027c.262-.604.928-.676 1.217-.685l1.36-1.08c-.027-.055-.054-.09-.072-.09h-.027z"/><path d="M479.572 29.739l-.018.045c-.216.126-.567-.171-.549-.297.018-.127-.253.117-.343.27-.09.153-.333.189-.558.08l-.379-.314-7.468 5.936c.225.325.189.937.063 1.127a2.544 2.544 0 00-.27.531c-.009.045-.09.054-.108.045-.018-.009-.379.424-.523.568-.144.144-.216.36-.198.396.018.036-.153.198-.225.162-.072-.036-.847.352-1.127.415-.279.063-.414.378-.405.486.009.072 0 .108-.018.135 1.081 2.117 3.811 6.568 8.82 9.64l4.721-3.757 2.072-2.45-.694-1.28c0-.099.072-.225.153-.288l.333-.243c.099 0 .154-.09.127-.19l.504-1.233a.492.492 0 00.234-.235l.496-.91c.054-.08.189.108.207.199.018.09.099.117.171.045l1.126-.415c-3.135-3.243-5.216-6.72-6.171-8.495l.027.027zm16.315 86.964a34.354 34.354 0 01-1.991-.162.247.247 0 00.064.036c.036 0-.037.054-.064.072-.036.018-.108.072-.171.117l-.099.072a.45.45 0 01-.18.135c-.018 0-.036.027-.036.054l-.027.036-.045.045c-.045.027-.081.009-.09-.018l-.415.279c-.063.045.09.118.063.172-.027.063-.342.306-.405.342a3.054 3.054 0 00-.252.18 2.68 2.68 0 00-.171.162l-.235.262c-.054.054-.036.117.036.144l.145.279h.063c.045 0 .09.045.126.09 2.234 0 3.675-.018 3.675-.018-.063-.207-.126-1.928 0-2.279h.009zm-30.234-52.766c.108.171-.135.423-.27.387-.126-.027-.252.28-.297.685 1.027-.432 1.991-.694 2.901-.793 0-.009-.018-.027-.027-.036-.163-.189-.289-.351-.289-.351v-.036s-.018-.01 0-.01.063-.09.081-.125c.018-.036-.874-.685-1.153-.955a9.377 9.377 0 00-.423-.36l-.478.378s-.036.063-.054.08c-.135.181-.09.956.018 1.118l-.009.018zm24.271 54.586l-.262.477h.586l-.18-.459c-.027-.073-.099-.082-.144-.018z"/><path d="M481.879 111.297a2.138 2.138 0 01-.253-2.675c2.09-3.163 3.153-7.226 3.153-12.072V77.162s-.027-.018-.045-.027l-.63-.234a.545.545 0 01-.325-.468l.027-.712c.045-.19.217-.379.388-.424.171-.045.441-.126.441-.126a.343.343 0 01.135-.009v-9.27c0-5.595-1.729-9.685-5.27-12.414a.14.14 0 01-.099-.073c0-.018-.027-.027-.045-.036-.018-.018-.036-.027-.054-.045a.238.238 0 00-.09-.027c-.018 0-.009-.027-.009-.045a20.385 20.385 0 00-.856-.585 147.028 147.028 0 01-4.18 3.324l-6.757 5.37c.054.279.396.765.523.882.126.117.45.081.522.027.081-.054.198.298.153.379-.045.08.685.207.937.315.198.081.451.928.37 1.351.216.045.45.108.675.19a.47.47 0 00.099-.09l-.045-.172-.081-.297c.216-.036.532.432.676.54.144.118.297.064.342-.117.045-.18.036-.756.09-.792.054-.036.298.306.244.576-.054.261-.1.496-.091.523l.018.018s-.036.018-.036.027h-.018s-.063.135-.126.279c1.352.847 2.559 2.55 2.559 5.91v8.946c.207-.054.432-.108.558-.126.271-.045.298.531.027.55-.27.017-.261.369-.288.486-.036.117-.018.441.027.72.027.145-.126.505-.324.82v17.469c0 4.567-.856 8.342-2.55 11.225-1.378 2.342-3.441 4.396-6.135 6.126.469.252.811.982.811 1.847 0 .072 11.09.054 19.676.036.018-.027.036-.045.045-.063.018-.027.099-.099.117-.135.018-.027.072-.099.126-.162l.297-.343c.054-.054.09-.045.081.036 0 0-.027.226.072.487a.51.51 0 01.027.162h1.018c0-.027 0-.054-.009-.081l-.144-.288a.271.271 0 01.045-.235l.316-.621a.208.208 0 01.198-.108l1.324.18c.072.018.171-.027.216-.081a1.8 1.8 0 00.072-.108c.046-.063.046-.09-.018-.063a3.378 3.378 0 01-.261.081c-.072.018-.099-.018-.054-.072l.379-.316c.063-.036.117-.009.117.072 0 0 0 .09-.054.154.18-.217.513-.55.513-.55.054-.054.09-.099.09-.099s.018-.009.018-.018c0 0 .063-.045.117-.099l.712-.613c-3.982-.802-7.18-2.423-9.541-4.856l.037.027zm3.684 7.334l-.243.081c-.072.036-.126.009-.126-.054s-.045-.253-.063-.262c-.018 0 .027-.009.108-.009h.252c.081.009.171.145.189.19.018.036-.036.063-.117.054zm-22.504-53.712a8.1 8.1 0 00.468.667c.018.018.505-.82.775-1.1.27-.279.441-.576.378-.675-.027-.036-.126-.072-.243-.1l-1.405 1.118s0 .054.018.08l.009.01zm43.189 3.045c-.081-.081-.207-.072-.27.027l-.622.64a.377.377 0 00-.126.342l.108.432a.412.412 0 00.243.262c.379-.424.775-.838 1.189-1.262l-.522-.441zm35.712-2.847c-.036.09-.082.162-.127.19-.135.09-.279.008-.315-.172 0 0-.009-.108.036-.234-.387-.216-.757-.441-1.135-.658l-.631.46c-.063.18-.108.405-.099.423.009.018.334.171.442.234.108.063.351.054.405.027.063-.027.198.154.207.226.009.072.108.26.226.414l.991 1.892 2.126-1.685a75.44 75.44 0 01-2.117-1.117h-.009zm-32.685-.604c-.09.073-.081.19.018.253l.405.234c.081.054.198.144.28.225.018 0 .054-.018.054-.027.018-.027.171.01.18.036 0 0 .045.018.099.027a55.832 55.832 0 014.414-3.17 2.129 2.129 0 011.162-.343c.631 0 1.262.279 1.676.81 3.721 4.667 8.883 8.874 15.36 12.55l4.667-3.712.721-5.189c.126-.144.207-.27.198-.27 0 0 .009-.018.018-.018 0 0 .072-.297.081-.406 0-.117.009-.26.018-.279 0-.018.018-.189.027-.243.009-.054.054-.09.063-.09.009 0 .027-.036.036-.1l.045-.044c.325-.288.523-.649.721-1.01a57.13 57.13 0 01-1.622-1.008c0 .162-.108.432-.18.513-.09.108-.207.153-.261.09-.054-.063-.018-.54-.027-.63 0-.054.117-.108.234-.126-4.09-2.622-7.522-5.469-10.243-8.54-6.468 2.558-12.216 5.36-17.207 8.377l-.946 2.09h.009z"/><path d="M534.401 110.631a2.131 2.131 0 01-1.234.387 1.95 1.95 0 01-.712-.126c-21.883-7.721-32.522-16.91-32.522-28.1 0-3.657 1.225-7.215 3.657-10.648-.072-1.08.685-2.225.685-2.225.063-.1.189-.108.198-.072.009.027.027-.01.036-.036a.993.993 0 00-.072-.243l-.261-.82c-.027-.117-.307-.117-.406-.081-.099.027-.243-.027-.315-.117l-.315-.883c.018-.117.198-.289.261-.307.063-.018.045-.153.027-.207-.018-.054-.081-.054-.099-.045a65.371 65.371 0 00-3.982 3.324c-5.342 4.883-8.604 9.82-9.757 14.712.027.045.054.1.09.144l1.757 3.334c.045.189-.189.738-.324.865a2.316 2.316 0 01-.496.369c-.072.027-.045.234 0 .297.054.063-.045.045-.216-.036 0 0-.126-.054-.405.117l-.063.045c-.082-.08-.532 0-.667.063-.027.01-.072.045-.108.072.396 6.199 3.585 11.847 9.72 17.226 5.775 5.063 14.226 9.964 22.325 12.982.018-.045.045-.099.063-.135.027-.055.243-.145.315-.154.072-.009.081.298.099.415v.045c.694.252 1.388.495 2.072.712.081-.163.271-.46.289-.604.018-.171.09-.469.153-.649l-.018-.648a.334.334 0 00-.388-.298l-1.216.433a2.315 2.315 0 01-.378.252c-.027.009-.153-.117-.207-.162-.045-.054-.154.072-.172.135-.018.063-.027-.117-.027-.198 0-.072.108-.18.154-.198.045-.018.108.018.108.027 0 .018.153 0 .189-.045.036-.045.054-.1.054-.1s.153-.063.333-.126l.775-.261c.189-.063.324-.108.324-.117 0 0 .28-.144.379-.189.099-.045.072.018.036.072-.036.054.063.279.135.315.072.036.369-.189.378-.324 0-.135-.09-.234-.198-.225-.027.018-.054.027-.09.045l.081-.045a31.432 31.432 0 011.622-.739c.18-.072.405 0 .495.171l1.27.91 19.991-16.225-1.387-1.568c-3.252 2.973-7.288 6.162-12.018 9.496l-.018-.009zM508.536 64.1l.261-.794c-.666.424-1.324.856-1.973 1.289l1.496-.352c.108.036.207-.027.216-.144z"/><path d="M530.104 88.18v-3.27l-2.253-.532a7.442 7.442 0 00-.639-1.567l1.243-1.928-2.315-2.315-1.748 1.08c0 .127-.045.235-.126.262-.243.081-.64.09-.874.009-.234-.072-.135-.496-.135-.496-.009-.036-.009-.063-.018-.09a7.529 7.529 0 00-.631-.225l-.522-2.234h-3.271l-.486 2.234a7.576 7.576 0 00-1.577.658l-1.946-1.207-2.306 2.315 1.243 1.928a7.737 7.737 0 00-.639 1.567l-2.253.532v3.27l2.262.496c.126.423.297.82.486 1.216l.243-.045c.244.117.406.414.361.675l-.694.487c-.036.261-.171.324-.216.28-.054-.046-.099-.028-.108-.01 0 0-.036 0-.063-.027l-.586.946 2.315 2.316 1.955-1.262c.478.261.982.469 1.505.622l.495 2.28h3.271l.531-2.28a7.81 7.81 0 001.532-.622l1.378.883 1.658-1.36c.162-.018.252.18.297.37l.946-.947-1.225-1.973c.27-.486.486-1 .639-1.54l2.262-.496h.009zm23.171-23.063c0 .063.09.19.126.207.045.018.126.054.189.072l.793.36 1.072-.837-.423-.604c-.027-.063-.1-.108-.163-.099l-1.234.036c-.063 0-.144.072-.153.108-.018.036-.072.027-.117-.018l-.036-.027-.153.117.099.667v.018zm37.198 52.595c.018-.099-.027-.189-.045-.198-.018-.018-.045-.018-.045-.018h-.09c-.027 0-.036-.028-.027-.037 0-.009-.072-.036-.171-.054l-1.46-1.27c-.081-.045-.189-.054-.198-.045-.009.009-.315-.108-.333-.036-.018.072-.739.36-.811.36-.072 0-.072.487-.153.541l-.108.649c-.082.063-.081.225-.081.27 0 .045-.046.108-.109.162a.342.342 0 01.072.153l.018.325c0 .099.009.162.027.144h.028c.711-.406 1.423.288 1.423.288.072.072.414.18.513.18.1 0 0 .207-.063.252-.072.045-.045.19-.009.244.036.054.118.036.19-.036l.621-.604c.072-.063.153-.099.171-.081l.027.018c.1.072.118.054.118.054.072-.072.063-.189.045-.216-.027-.027-.027-.054-.027-.054s.054.018.063.027c.018 0 .099.108.171.135l.486-.388-.216-.783-.027.018zm-3.514 2.414c-.09-.045-.306 0-.36.045a2.242 2.242 0 00-.216.207l-.514.451c.37.225.748.423 1.136.594l1.189-.946s-.045-.036-.09-.027l-1.154-.324h.009zm-35.27-54.351c.054.036.162-.018.189-.027.027-.01.081 0 .136.018a.212.212 0 01.072-.081l.198-.1c.063-.026.099-.053.081-.053h-.018a.74.74 0 01-.198-.27l-.748.594.279-.072.009-.01zm12.838 20.901s.054.153.045.18c0 .027-.306.099-.369.063-.063-.036-.18-.045-.208-.036-.027.009.055.099.181.198l.216.865a.764.764 0 00.063.37c.027.026.036-.019.063-.037.018-.018.09.054.054.072-.027.018.018.145.108.28l.063.18h2.892c-.144-.415-.405-1.243-.522-1.856l-.054-.297H564.5l.009.009.018.009z"/><path d="M577.833 106.766a2.143 2.143 0 011.28 1.766c.297 3.153 1.333 6.063 3.081 8.63.36.532.72 1.009 1.108 1.451l1.937-.37.252-1.396a.4.4 0 01.297-.117l.406.018c.081.054.171.027.207-.072l1.135-.622c.09.027.234.018.324-.036l.928-.387c.09-.027.081.198.036.279-.045.081 0 .144.099.144l2.361.793.135.117s0-.18.045-.225c.045-.045.162.027.162.054 0 .036.09.036.126.036.036 0 .153-.027.18-.036.027-.009.136.018.226.054l.387.162 8.577-6.82a3.5 3.5 0 01-.244-.675 3.38 3.38 0 01-.072-.514c-2.396 1.982-4.91 2.568-6.558 2.27-1.91-.342-4.739-1.612-4.739-8.856V79.991c0-14.117-8.856-21.757-23.279-25.964l-11.415 9.081h.226a.268.268 0 01.162.135l.171.352c.036.054.099.144.144.198l.405.73.469-.37a2.116 2.116 0 011.036-.342v-.01c.036-.026.09-.143.108-.18a.651.651 0 01.036-.062s.117-.054.171-.072c.054-.019.117-.037.117-.037s.009-.027.009-.036v-.027c0-.009-.018 0-.027 0h-.045c-.009 0-.009-.027-.009-.027h-.045s.009.018.018.018h.018s-.045-.009-.054-.018c-.018 0 0-.054 0-.072 0-.018.072-.036.135-.054l.352-.126a.682.682 0 01.171-.045c.018 0 .045.036.054.054.009.018.063.018.126.01l.099-.163c0-.063-.072-.1-.099-.09-.027 0-.027-.018-.018-.027 0-.01.018 0 .018.009s.045 0 .108-.027l.189-.081a.76.76 0 01.163-.045c.018 0 .027.054.027.126l.027.144c.018.063-.027.216-.054.252-.018.036.018.081.036.09.018 0 .036.01.036.01s.018.017.036.026h.054v.018s.072.072.072.108c0 .037.045.064.108.064l.027-.072.018-.037-.036-.036s.045.018.099.045a.936.936 0 00.108.045c.063.019-.036.073-.099.109-.054.027-.063.153-.063.198 0 .045-.045.198-.036.261.009.054.018.162.018.225v.036c.135.036.252.081.369.117l.208-.162a1.22 1.22 0 01.099-.126s.063.018.081.027c.018.01.036-.036.045-.063 0-.018.018.036.027.063.009.027-.018.072-.027.081-.009.01-.036 0-.036 0s-.054.018-.054.036v.036s-.045.036-.09.081l-.091.073c5.415 1.873 10.19 4.621 13.298 7.27 3.693 3.144 5.621 7.432 5.73 12.73a2.165 2.165 0 01-.613 1.549c-.406.415-.955.64-1.532.64h-6.765l-.036.81c.018.163.081.235.099.208.018-.027.081 0 .099 0h.198c.054 0-.009.216-.054.216s-.144.054-.162.036c-.018-.01-.018-.045-.009-.045s.054-.018.072 0h-.018c-.009 0-.09 0-.126-.018-.036-.018-.054-.01-.054 0 0 0 .036.243.036.315 0 .072.081.072.108.063.036-.009.036.081.027.117 0 .036-.09.063-.108.045-.018-.018-.054.09-.09.253l-.442.17h7.216c1.19 0 2.145.965 2.145 2.145v10.315c0 .676-.316 1.307-.856 1.712l-10.244 7.739a2.132 2.132 0 01-1.288.432c-.333 0-.667-.072-.973-.234-8.793-4.45-13.063-8.964-13.063-13.802 0-2.288 1-4.351 2.901-5.973 1.117-.946 2.459-1.603 4-1.982 0-.135.027-.28.099-.378l1.144.09c.126-.063.162-.036.108.054l.469-.054.099-.072c.234-.153.405-.234.405-.234.144-.073.189-.388.162-.478-.027-.09.28-.009.388.045.108.054.423.018.504-.009.081-.027.126-.36.171-.513.046-.144.28-.235.334-.208.054.028.063-.072.018-.225-.045-.153-.09-.297-.09-.297a1.05 1.05 0 01-.036-.234h-8.82c-4.261 0-7.757 1.279-10.667 3.919-2.856 2.585-4.243 5.55-4.243 9.054 0 3.504 1.946 7.486 5.784 11.522a43.251 43.251 0 0012.91 9.343l17.459-13.469a2.13 2.13 0 011.307-.45c.288 0 .576.063.855.18l.045-.009zM547.149 71.46l5.648-4.442-.216-.306-.937.225a.257.257 0 01-.153-.153l-.099-.253c.009-.063-.036-.117-.099-.108l-.307-.234-4.459 3.55c.243.288.441.684.55 1.153.045.198.063.387.072.577v-.01zM189.05 15.144h-.009v.108c.054-.063.09-.108.072-.117h-.063v.01z"/><path d="M197.347 14.216c4.468-.207 7.495-2.82 7.495-6.234-.243-.243-.414-.577-.288-.982.045-.135.063-.27.09-.405-.45-1.586-1.676-2.784-3.423-3.613l-.397-.1a.686.686 0 01-.243-.188c-2.054-.811-4.694-1.198-7.567-1.198-.676 0-3.496.045-5.352.126v.207c.802.126 1.261.585 1.306 1.603.037 1.109.073 4.09.082 8.775.018 0 .036.01.045.018.036.018.027.144 0 .171-.027.027-.036.045-.036.045h-.009v.045s.126-.072.171-.108c.045-.036.045.208.018.307s-.018.189-.009.189c0 0 .18 0 .225.018.045.018.126.054.144.054.018 0 0 .036-.018.045-.009 0 0 .045 0 .063 0 .018-.108.135-.171.144-.063.01-.117.072-.117.09 0 .018-.045.072-.063.072-.018 0-.018-.054-.018-.072 0-.018-.108.036-.144.045-.018 0-.018.01-.027.018v.036s.081 0 .108.018a.308.308 0 00.117.018c.018 0 .018.037.018.046 0 0 .054.09.135.18l.027.18v.08c-.045.091-.09.172-.09.181v.018s-.009-.009 0-.018-.036.018-.063.027c-.027.01.162.117.252.18.09.063-.045.406-.126.487-.081.08-.126.171-.117.171 0 0 .018.063.009.081-.009.018.162-.054.225-.09s.108-.09.108-.09.027-.027.036-.027c0 0 .09-.108.108-.171.018-.063.09 0 .162.108l-.126.54c-.072.117-.117.217-.108.217 0 0 0 .036-.018.027-.009 0-.027 0-.027-.01 0-.008-.036.046-.054.055-.018.009-.027.063-.027.072 0 .009.144.063.153.117 0 .054 0 .108-.009.108s-.045.072-.054.099c-.018.027-.027.045-.036.045 0 0-.054.036-.072.027-.027-.009-.027-.045-.018-.054.009-.009-.063 0-.099.036-.027.027 0 .072.027.09.018.018.018.072 0 .081-.018.01-.018.018-.009.018 0 0 0 .126-.027.162-.018.036-.126.045-.144.027a.079.079 0 00-.054-.036s-.063.244 0 .289c.063.045-.081.117-.144.153h-.018v.657l.072.064c.09.099.054.162-.072.153 0 5.207-.045 8.531-.081 9.72-.046 1.01-.505 1.478-1.307 1.604v.207c2.568.126 5.559.207 7.712.207 1.739 0 3.342-.18 4.784-.486.036-.027.081-.063.108-.081.144-.117.27-.117.297 0 .18-.045.351-.1.532-.144a.619.619 0 01-.054-.117c-.009-.063.18-.1.432-.072h.27c4.054-1.289 6.478-3.856 6.478-7.055 0-5.054-4.676-7.288-10.874-7.288l-.036.018zm-3.919-11.252c5.225 0 6.829 1.685 6.829 5.009 0 4.126-1.982 5.81-6.91 5.81 0-5.477.045-8.297.081-10.828v.009zm1.559 25.027c-.46 0-1.01 0-1.514-.045 0-.144-.009-.315-.018-.495-.018 0-.045.017-.054.017-.018 0-.036-.036-.036-.045 0-.018.045-.144.072-.225V27.1a.639.639 0 00-.198-.117c-.072-.027-.135-.018-.144 0-.009.018.099.18.117.252.018.072-.171.063-.189 0-.018-.063-.172-.198-.19-.243-.018-.045-.198.054-.261.126-.063.072-.009-.045.117-.261l.694-.27s.018-.01.027-.01c-.054-2.198-.081-5.783-.081-10.513v-.676a21.368 21.368 0 012.739-.17c5.558 0 7.414 2.44 7.414 6.53 0 3.622-2.189 6.235-8.514 6.235l.019.009z"/><path d="M189.491 15.883h.018s.018-.054.018-.072c0-.018-.045 0-.063 0a.496.496 0 00-.144.099c-.027.027-.081.09-.126.135h.036c.108-.027.18-.108.27-.153l-.009-.01zm-.333.207l-.018.027s.009-.018.018-.027zm37.594 10.469c-.045-.757-.081-2.442-.081-7.667 0-1.162-.387-2.126-1.108-2.865a58.29 58.29 0 01-.874-.036.512.512 0 01-.468-.477l-.316-.577c-.909-.396-2.027-.64-3.324-.72-.018 0-.036 0-.054.008l-.324-.036c-.225-.009-.46-.018-.703-.018-2.144 0-4.216.586-6.027 2.234v2.316l.207.08c1.307-2.152 3.37-3.369 5.775-3.369 2.063 0 3.712 1.1 3.712 3.45v1.352c-1.262-.378-2.316-.504-3.541-.504-4.297 0-8.045 1.982-8.045 5.054s2.487 5.054 6.279 5.054c2.018 0 4.217-1.01 5.307-2.406 0 .631-.081 1.604-.208 2.406l.172.08c1.306-.72 3.117-1.26 5.018-1.476v-.172c-.631-.17-1.307-.504-1.388-1.73l-.009.019zm-3.441-1.469a1.99 1.99 0 00-.162.27c0 .262-.009.487-.018.649-.271.297-.55.559-.847.793-.018.072-.054.162-.09.171-.018 0-.054 0-.09-.018-1.099.856-2.316 1.288-3.532 1.288-1.658 0-2.847-1.018-3.153-2.603a.594.594 0 00-.135-.154c-.054-.035-.198-.45-.225-.585-.027-.135.018-.28.045-.297.027-.018-.009-.153-.018-.199-.009-.045-.018-.09-.009-.09 0 0 .027-.126.045-.17a.98.98 0 01.063-.136c0-.018.045 0 .054.009.009.009.099.19.117.261 0 .01.018.01.027.018.252-2.072 2.009-3.45 4.586-3.45.756 0 1.378.063 1.945.162a.283.283 0 01.235-.054h.036s.171.045.225.081c.045.036.063.072.054.081.243.054.468.126.703.198v3.127s.036-.037.054-.046c.018-.009.027-.018.018-.018v-.09c.009-.018.09.036.063.054-.018.018-.036.027-.036.027s.063.027.072.036c.009.018.126.027.162.018.036-.009-.09.523-.207.676l.018-.009zm24.558 2.352c-.045-1.055-.081-3.793-.081-6.325 0-4.171-1.351-6.955-5.946-6.955-2.738 0-4.756 1.559-5.513 3.54 0-.558.036-1.53.144-3.225l-.91.262c-.099.063-.423 0-.477-.09-.289.108-.577.216-.892.306l-.027.045-.018-.027c-.235.072-.478.126-.73.19-.018 0-.027.017-.045.017-.081 0-.406.135-.505.144l-.297.036c-.414.081-.838.154-1.27.199v.17c.63.172 1.351.505 1.387 1.73.045.757.081 2.442.081 4.09 0 2.109-.045 4.847-.081 5.902-.045.927-.423 1.432-1.306 1.765l.045.171a37.139 37.139 0 013.036-.126c1.054 0 2.144.045 3.162.126l.045-.17c-.883-.38-1.261-.884-1.306-1.766-.045-1.055-.081-3.793-.081-6.325v-1.351c.504-2.613 2.441-4.216 4.675-4.216 2.235 0 3.325 1.26 3.325 5.558v1.135c0 .01.018.036.018.036.018.018.018.1 0 .117 0 0-.018 0-.027.01 0 .756-.009 1.504-.018 2.18l.045.468-.054.108v.216a.32.32 0 00.207-.08.593.593 0 01.216-.109c.126-.045.234-.09.234-.09l.045-.045c.018 0 .027-.018.018-.018v-.09c0-.027.082.036.064.054-.018.018-.036.027-.036.027l.072.036a.397.397 0 00.153.018c.036 0 .027.1-.018.234l-.235.496c-.081.108-.135.252-.126.27 0 .018-.09.081-.126.09a2.87 2.87 0 00-.351.37c-.081.099-.108.189-.099.189.009 0 .117.108.072.144a.827.827 0 01-.153.072c0 .18-.009.342-.018.468-.045.928-.505 1.388-1.307 1.766l.045.171a37.363 37.363 0 013.073-.126c1.09 0 2.108.045 3.117.126l.045-.17c-.883-.38-1.262-.884-1.307-1.767l.036.019zm33.118-10.235a49.356 49.356 0 01-3.496.126 50.38 50.38 0 01-3.495-.126l-.046.207c.883.424 1.262.721 1.307 1.73.036.982.063 3.442.081 5.388.117.126.189.279.144.477v.036s.027.117.036.135c.009.018 0 .144-.036.171-.036.036-.045.235-.036.298.009.036-.045.18-.108.315v.261c-.09.045-.18.09-.261.135-.018.018-.027.018-.045.027-.027.018-.054.027-.073.036a.448.448 0 00-.108.145l-.054.072s-.108.072-.153.09c-.045.018-.126.045-.144.054-.018 0-.027-.036-.036-.045 0 0 0-.036.018-.063-2.135 1.045-4.378 1.567-6.973 1.567-6.153 0-11.504-5.225-11.504-12.81 0-.92.081-1.802.225-2.65-.027 0-.054.019-.081.01a1.866 1.866 0 00-.262-.018l-.333.252a.975.975 0 01-.369 0c-.036-.018.162-.063.243-.081.09-.018.18-.072.198-.126.009-.027.135-.036.261-.036l.397-.298c.144-.747.351-1.459.603-2.144 0-.072.009-.144.027-.18.045-.09.018-.189 0-.207-.018-.018.018-.117.091-.234l.153-.262c.036-.054.09-.099.144-.108.045-.09.081-.189.126-.288h-.09a.578.578 0 01-.424-.153l-.405-.37c-.108-.08-.09-.26-.045-.306.045-.045-.171-.153-.261-.17-.09-.019-.144-.046-.144-.055h-.045c-.009 0-.244-.018-.325-.009-.072 0-.027-.018.108-.045l1.937-.505a.253.253 0 00.253-.252l.027-.567a.414.414 0 01.279-.316l1.036-.684a.367.367 0 01.405.009l.144.108c2.072-1.991 4.775-3.126 7.622-3.126 5.396 0 9.018 2.612 11 6.783l.252-.08-.171-4.47C276.014 2.244 271.671.893 267.5.893c-7.378 0-13.91 4.117-15.712 10.775a.86.86 0 01.036.189c.018.09.027.162.036.162a.866.866 0 01-.117.1c-.009.008-.054.008-.081.008a14.535 14.535 0 00-.378 3.306c0 7.072 4.865 12.154 11.27 13.883a.61.61 0 01.27-.072c.343-.018.478.072.478.072.198.144.486.054.594 0 .1-.045.036.19-.027.298.036 0 .081.018.118.027.162-.117.351-.262.441-.36.171-.172.279-.109.252.134l-.018.334c.928.135 1.874.216 2.838.216 4.595 0 8.676-1.892 11.369-5.117v-.045s.027-.081.036-.117c0-.036.018-.054.018-.054s.046-.045.073-.036c.027 0 .036.036.027.045h.018c.018-.027.045-.054.072-.081 0-.018-.027-.046-.045-.046-.027-.009-.036-.072-.027-.08.009-.01.009-.028 0-.028 0 0-.018-.126-.009-.162.009-.036.117-.08.144-.054a.157.157 0 00.063.027s.018-.261-.054-.288c-.072-.027.054-.135.117-.19.054-.044.207-.026.27.037 0-.027.018-.072.054-.09v-.37c-.108-.054-.342-.153-.459-.234-.162-.117-.09-.225.162-.252l.297-.027c.009-1.325.045-2.613.081-3.64.045-1.009.46-1.351 1.307-1.73l-.045-.207.018-.018zm-26.334-4.18s-.108-.027-.144-.045c-.036-.027.09-.027.171-.018.081.018.135.054.126.063 0 .009-.117 0-.153 0zm24.982 10.811l-.027-.027v.08s.009-.017.018-.017v-.027l.009-.01zm35.126-15.883a.479.479 0 00-.306-.135h-.396c-.099 0-.145-.081-.108-.171l.135-.289a.353.353 0 00-.018-.315l-.469-.739c-.054-.09-.081-.333-.072-.396v-.018c-3.225-3.234-8.486-4.387-14.486-4.387-2.442 0-5.271.045-7.118.126v.207c.802.126 1.262.585 1.307 1.603 0 .244.018.577.018.991l.36.667c.09.234 0 .54-.189.694-.036.027-.09.08-.153.135.027 2.099.045 5.297.045 9.532 0 6.531-.045 10.657-.081 12.008-.045 1.01-.505 1.478-1.307 1.604v.207c1.433.072 2.73.126 4.037.163 0-.055 0-.1-.018-.1-.037-.018-.046-.08-.019-.144l.028-.018.207-.099c0 .144.018.252.045.243.018-.009.09.045.153.127.207 0 .414.008.631.017.054-.09.225-.216.324-.17.081.035.18.134.225.18.532 0 1.072.017 1.64.017 13.567 0 17.693-7.666 17.693-14.405 0-2.55-.477-4.658-1.333-6.396l-.784-.712.009-.027zM311.5 20.982l-.144.216-.054.081h-.135c-.171.442-.352.865-.568 1.27l.072.235c.045.135-.144.234-.351.28-1.973 3.287-5.568 4.927-10.847 4.927-.595 0-1.135 0-1.73-.045-.081-1.856-.126-5.982-.126-12.514 0-7.117.045-9.946.081-12.64.55-.044 1.009-.044 1.478-.044 9.603 0 12.973 5.27 12.973 12.306 0 2.19-.271 4.1-.802 5.73.036.072.072.144.144.189l.009.009zm13.766 4.766l-.018.054h.018v-.055zm-.324-.316v.037c0 .008.027 0 .036 0 .009 0 .045-.037.063-.073.018-.018.036-.063.054-.09h-.018c-.054.027-.09.081-.135.117v.01zm.297-.558c0 .045.009.09.009.09v-.072s0-.01-.018-.018h.009z"/><path d="M331.167 18.27l.414-.036v-3.252c-.378-.586-1.387-.802-2.144-.802-1.766 0-3.243 1.225-4.171 3.162 0-.883.045-1.684.171-3.162l-.171-.08c-1.307.71-3.117 1.26-5.018 1.477v.17c.63.172 1.351.505 1.387 1.73.045.757.081 2.442.081 4.09 0 2.109-.045 4.847-.081 5.901-.045.928-.423 1.433-1.306 1.766l.045.171a37.357 37.357 0 013.072-.126c1.09 0 2.108.045 3.117.126l.045-.17c-.883-.38-1.261-.884-1.306-1.767 0-.099 0-.234-.009-.36h-.045c-.009 0 0-.018 0-.027v-.036s.018-.036.045-.072v-.27l-.018-.018-.036-.1-.018-.044c.018-.055.036-.109.036-.118v.01l.027-.028v-.441s-.045-.009-.063-.009c-.018 0-.045-.036-.045-.054 0-.018-.081.054-.117.081-.036.027-.054.063-.054.063s-.009.018-.018.018c0 0-.036.072-.036.108 0 .036-.154-.207-.118-.306.036-.1.054-.19.054-.19v-.017h.018s.018-.027.027-.036c.009-.01 0-.036 0-.045 0 0-.09-.018-.099-.046-.009-.026-.009-.063 0-.063 0 0 .018-.045.018-.063 0-.018.009-.027.009-.027s.027-.027.036-.018c.009.01.018.018.018.027 0 0 .036-.009.055-.027.018-.018-.009-.036-.028-.045-.018 0-.018-.036-.009-.045v-.009s-.009-.072 0-.09c0-.018.064-.045.082-.036.018.01.036.018.036.01 0-.01 0-.145-.036-.163-.036-.018.027-.072.063-.108.027-.027.126-.01.153.027a.12.12 0 01.027-.063v-.207a1.113 1.113 0 01-.252-.136c-.091-.063-.046-.126.09-.135l.162-.018c-.009-1-.018-2.108-.018-3.18v-2.441c.711-1.307 1.603-1.937 3.243-1.937a3.21 3.21 0 012.703 1.522l-.018-.036zm36.234 8.289c-.045-.757-.081-2.442-.081-7.667 0-3.072-2.694-4.72-7.162-4.72-1.658 0-3.262.36-4.739 1.27 0 .018 0 .035-.018.053-.333.64-.667.64-.856.568a4.91 4.91 0 00-.414.342v2.316l.207.08c1.306-2.152 3.369-3.369 5.775-3.369 2.063 0 3.711 1.1 3.711 3.45v.83s.027-.072.036-.09c.054-.054.172-.127.154 0l-.109.621c-.027.117-.072.108-.081 0-1.261-.378-2.315-.504-3.54-.504-4.297 0-8.045 1.982-8.045 5.054s2.486 5.054 6.279 5.054c2.027 0 4.216-1.01 5.306-2.405 0 .63-.081 1.603-.207 2.405l.171.08c1.307-.72 3.117-1.26 5.009-1.476v-.172c-.63-.17-1.306-.504-1.387-1.73l-.009.01zm-3.622-.55c-1.351 1.477-2.955 2.234-4.549 2.234-1.937 0-3.243-1.387-3.243-3.45 0-2.36 1.855-3.964 4.63-3.964 1.352 0 2.279.171 3.198.46 0 2.107 0 4-.045 4.72h.009zm-25.405-4c0-.802.045-1.558.126-2.234h10.91v-.018c0-.018.072-.09.063-.09l-.009-.01v-.062s.009 0 .009.009l-.018.018h.018c0-.108 0-.226-.018-.334-.018-.018-.045-.036-.072-.063l-.036-.045c-.18-.216-.036-.378-.036-.378.081-.09.072-.19.054-.207-.027-.01-.027-.054-.009-.1h.009c-.568-2.702-3-4.342-6.739-4.342-4.63 0-8.297 3.036-8.297 7.838.117.072.18.207.144.37l.09.945c-.027.072-.063.136-.09.198.018.127.045.253.072.379a.648.648 0 00.297-.144c.172-.144.388-.198.388-.198.234-.082.423-.163.432-.172.009-.009.054-.063.09-.08.027-.019.045-.028.036-.028 0 0 0-.117.009-.153.009-.036.154.072.117.1-.036.026-.063.053-.063.053s.109.045.127.072c.018.027.216.045.279.036.063 0 .045.19-.036.415l-.415.892c-.144.198-.234.45-.225.486.009.036-.162.144-.225.162a1.81 1.81 0 00-.234.216c1.378 2.811 4.378 4.334 7.504 4.334 3.126 0 5.27-1.81 6.279-3.072v-.46c-1.261 1.1-2.531 1.64-4.801 1.64-3.199 0-5.73-2.234-5.73-5.982v.009zm4.252-6.486c1.766 0 2.739 1.054 2.739 2.738l-6.613.334c.586-1.937 1.766-3.072 3.874-3.072zm64.18 9.144a2.54 2.54 0 00-2.531 2.531c0 .883.486 1.667 1.216 2.108v-.045c-.009-.063.045-.009.117.108l.009.01c.027.008.045.026.072.035a.533.533 0 00.207.037h.055s.072.08.153.117c.198.054.405.099.621.099a1.2 1.2 0 00.325-.054.421.421 0 01.297 0c1.099-.253 1.937-1.262 1.937-2.415 0-1.387-1.135-2.531-2.487-2.531h.009zm.595-23.037v-.017h-2.324a.325.325 0 01-.09.135c-.253.216-.442.279-.586.279l.577 5.847s.108.018.144.018c.036 0 .027.099-.018.234l-.081.18 1.405 14.334h.586l2.063-21.027h-1.487l-.126.09c-.099.018-.09-.045-.063-.072zm-8.441 25.812a62.504 62.504 0 01-.046-1.892c-.153-.037-.324-.145-.297-.235.045-.126.117-.26.144-.27.018-.009.081-.117.144-.19a243.992 243.992 0 01-.027-3.729c0-2.207-.369-4.018-1.369-5.234L396.185 15c-.054-.054-.063-.126-.045-.198-.784-.397-1.766-.622-2.991-.622-2.658 0-4.928 1.388-5.649 4.045-.595-2.405-2.108-4.045-5.432-4.045-2.658 0-4.595 1.559-5.307 3.54 0-.54.036-1.486.135-3.107-.054 0-.108-.01-.162-.018l-.811-.1c-1.198.514-2.648.91-4.18 1.082v.17c.631.172 1.352.505 1.388 1.73.045.757.081 2.442.081 3.667 0 1.982-.045 5.27-.081 6.325-.045.927-.424 1.432-1.307 1.765l.045.171a37.364 37.364 0 013.073-.126c1.09 0 2.108.045 3.117.126l.045-.17c-.577-.244-.919-.56-1.108-.974l-.469-.387a.443.443 0 01-.027-.423l.279-.523v-.153a.372.372 0 00-.207.08c-.099.073-.207.028-.252-.107 0 0-.027-.072.108-.144.207-.108.162-.19.162-.19-.045-.099.081-.108.171-.063a298.988 298.988 0 01-.054-5.207v-1.351c.46-2.613 2.316-4.216 4.469-4.216 2.018 0 3.117 1.26 3.117 5.558 0 2.568-.045 5.27-.081 6.324-.045.928-.505 1.388-1.307 1.766l.045.171a37.382 37.382 0 013.073-.126c1.09 0 2.108.045 3.117.126l.036-.17c-.883-.38-1.262-.884-1.307-1.767-.045-1.054-.081-3.792-.081-6.324v-.234c-.027-.027-.045-.144-.045-.27l-.126-.811a.404.404 0 01.153-.352l.144-.099c.604-2.378 2.334-3.792 4.343-3.792 2.82 0 3.117 1.855 3.117 5.558 0 2.568-.045 5.27-.081 6.324-.045.928-.505 1.388-1.306 1.766l.045.171a37.357 37.357 0 013.072-.126c1.09 0 2.108.045 3.117.126l.045-.17c-.883-.38-1.261-.884-1.306-1.767v-.017z"/></g><defs><clipPath id="clip0_667_31854"><path fill="#fff" transform="translate(.5)" d="M0 0h600v156.757H0z"/></clipPath></defs></svg>